<?xml version="1.0" encoding="UTF-8"?>
<svg version="1.1" xmlns="http://www.w3.org/2000/svg" width="406" height="375">
<path d="M0 0 C133.98 0 267.96 0 406 0 C406 123.75 406 247.5 406 375 C272.02 375 138.04 375 0 375 C0 251.25 0 127.5 0 0 Z " fill="#FEFEFE" transform="translate(0,0)"/>
<path d="M0 0 C12.25279016 -0.37318143 19.83173623 0.85890866 30.30078125 7.44140625 C33.47698233 9.30138166 33.47698233 9.30138166 37 10 C37.9075 9.195625 38.815 8.39125 39.75 7.5625 C45.42082312 3.16822581 53.24681899 4.24282516 60 5 C62.45376046 5.78740074 64.51467447 6.74734271 66.7734375 7.97265625 C71.89309306 10.33488329 78.60648313 11.79783896 84 10 C88.49583249 11.34874975 88.49583249 11.34874975 90.2109375 13.56420898 C93.02951326 15.82622373 95.57595085 15.30049014 99.125 15.22265625 C100.17820435 15.20917397 100.17820435 15.20917397 101.25268555 15.19541931 C103.50229353 15.16541187 105.75083073 15.11575331 108 15.0625 C131.12021243 14.56010622 131.12021243 14.56010622 138 18 C138.79791507 24.84566389 138.79791507 24.84566389 136.76806641 27.78222656 C135.0210399 29.50502461 133.21421399 31.07475163 131.3125 32.625 C130.0554887 33.69689017 128.80153547 34.7723777 127.55078125 35.8515625 C126.94540527 36.37008789 126.3400293 36.88861328 125.71630859 37.42285156 C123.19112268 39.74329268 121.14225582 42.32505446 119 45 C118.2575 45.66 117.515 46.32 116.75 47 C114.40522819 49.32606125 114.40522819 49.32606125 114 55 C121.26 55 128.52 55 136 55 C136 55.99 136 56.98 136 58 C128.74 58 121.48 58 114 58 C113.67 59.32 113.34 60.64 113 62 C114.19625 62.0825 115.3925 62.165 116.625 62.25 C123.2888555 62.96436531 129.61437353 65.04707014 136 67 C136.33 68.32 136.66 69.64 137 71 C131.44444444 70.24242424 131.44444444 70.24242424 129.28125 69.0625 C126.06666752 67.5652972 122.7128679 67.01651428 119.25 66.375 C118.20392578 66.17390625 118.20392578 66.17390625 117.13671875 65.96875 C115.42548068 65.64056736 113.71286829 65.31956498 112 65 C111.90074219 66.01835937 111.80148438 67.03671875 111.69921875 68.0859375 C110.38730513 75.42972212 106.42459383 83.38086023 100.6875 88.3125 C98 90 98 90 96 90 C97.90628281 93.59211115 100.08896398 96.19146764 103.07397461 98.94335938 C122.34434795 116.73046299 133.45335558 148.64849348 135.2421875 174.5 C135.24861183 177.01833847 135.15545076 179.48859313 135 182 C135.73863281 182.1124707 136.47726562 182.22494141 137.23828125 182.34082031 C144.27810852 183.45672686 151.11075096 184.93641484 158 186.75 C168.30916402 189.41257733 178.66819101 191.69419418 189.11914062 193.73144531 C198.96686211 195.73853224 208.44999601 198.59746562 217 204 C216.67 205.65 216.34 207.3 216 209 C211.00365401 210.66544866 205.79242107 210.18592617 200.56054688 210.18530273 C198.53493382 210.18746275 196.5098898 210.20555211 194.484375 210.22460938 C193.17984375 210.22654297 191.8753125 210.22847656 190.53125 210.23046875 C189.35111328 210.23457764 188.17097656 210.23868652 186.95507812 210.24291992 C183.79822346 210.04902669 181.0373285 209.65598498 177.95776367 209.03881836 C171.05660405 207.71376649 164.15144122 207.44086147 157.14453125 207.1484375 C155.74774751 207.08468462 154.35099382 207.02027035 152.95426941 206.95523071 C149.31654503 206.78758372 145.67848872 206.62879369 142.0402832 206.47198486 C138.31241535 206.30969494 134.5849406 206.13883851 130.85742188 205.96875 C123.57196841 205.63755243 116.28614189 205.31573138 109 205 C108.690625 205.94875 108.38125 206.8975 108.0625 207.875 C107 211 107 211 106 213 C102.29173349 213.05837668 98.5835863 213.09372277 94.875 213.125 C93.82828125 213.14175781 92.7815625 213.15851563 91.703125 213.17578125 C86.40730664 213.20929909 81.9428941 213.17213685 77 211 C77.33 209.68 77.66 208.36 78 207 C81.465 206.01 81.465 206.01 85 205 C85 204.34 85 203.68 85 203 C84.14019531 203.20496094 83.28039062 203.40992188 82.39453125 203.62109375 C72.31029985 205.91946274 62.64704466 207.13670316 52.28125 206.87890625 C51.25894287 206.85932861 50.23663574 206.83975098 49.18334961 206.81958008 C47.13662807 206.77394794 45.09026025 206.70555341 43.04516602 206.61206055 C36.31874319 206.46007993 34.18855999 207.57527311 29 212 C25.58619866 212.66498348 22.27712975 212.56544795 18.8125 212.4375 C17.91080078 212.43169922 17.00910156 212.42589844 16.08007812 212.41992188 C9.44460336 212.29640224 9.44460336 212.29640224 6 210 C5.625 207 5.625 207 6 204 C9 202 9 202 14 202 C15.65 193.09 17.3 184.18 19 175 C18.34 174.67 17.68 174.34 17 174 C17 172.68 17 171.36 17 170 C16.39671875 169.96261719 15.7934375 169.92523438 15.171875 169.88671875 C11.66894358 169.59857439 8.67303925 169.29548065 5.4375 167.875 C4 166 4 166 3.25 162.6875 C4.22465143 157.89546379 5.94099483 157.30720008 9.83984375 154.71484375 C13.74640637 151.61361231 15.72400053 147.35802171 18 143 C18.45375 142.19304687 18.9075 141.38609375 19.375 140.5546875 C21.73596031 136.18410026 23.28383652 132.17586466 24.3125 127.3125 C26.07348466 119.46903382 30.07525219 112.93161106 34 106 C36.78365227 100.97044647 38.52208362 96.73499658 39 91 C38.25234375 90.55269531 37.5046875 90.10539062 36.734375 89.64453125 C35.74953125 89.03996094 34.7646875 88.43539062 33.75 87.8125 C32.77546875 87.22082031 31.8009375 86.62914062 30.796875 86.01953125 C27.90039456 83.92807819 26.10168881 81.86961357 24 79 C23.2265625 78.04867187 23.2265625 78.04867187 22.4375 77.078125 C18.73570146 72.37040294 14 66.2485805 14 60 C12.77023438 60.433125 11.54046875 60.86625 10.2734375 61.3125 C8.64079098 61.87548156 7.00796911 62.43795482 5.375 63 C4.56675781 63.28617188 3.75851563 63.57234375 2.92578125 63.8671875 C-1.53114644 65.38906525 -5.22037472 66.37123303 -10 66 C-10 65.01 -10 64.02 -10 63 C-1.585 60.525 -1.585 60.525 7 58 C3.47844036 55.65229357 1.49228157 55.62330386 -2.6875 55.375 C-3.86699219 55.30023438 -5.04648438 55.22546875 -6.26171875 55.1484375 C-7.16535156 55.09945312 -8.06898437 55.05046875 -9 55 C-9 54.01 -9 53.02 -9 52 C-6.81278471 51.94539546 -4.62516369 51.9069367 -2.4375 51.875 C-0.61025391 51.84019531 -0.61025391 51.84019531 1.25390625 51.8046875 C5.22644979 52.01180656 8.24213243 52.77155938 12 54 C13.03054641 44.03805138 11.94389027 37.6473603 7.14453125 28.92944336 C2.14705171 19.82482705 -0.72281525 10.48082109 0 0 Z " fill="#FEFEFE" transform="translate(132,147)"/>
<path d="M0 0 C12.25279016 -0.37318143 19.83173623 0.85890866 30.30078125 7.44140625 C33.47698233 9.30138166 33.47698233 9.30138166 37 10 C37.9075 9.195625 38.815 8.39125 39.75 7.5625 C45.42082312 3.16822581 53.24681899 4.24282516 60 5 C62.45376046 5.78740074 64.51467447 6.74734271 66.7734375 7.97265625 C71.89309306 10.33488329 78.60648313 11.79783896 84 10 C88.49583249 11.34874975 88.49583249 11.34874975 90.2109375 13.56420898 C93.02951326 15.82622373 95.57595085 15.30049014 99.125 15.22265625 C100.17820435 15.20917397 100.17820435 15.20917397 101.25268555 15.19541931 C103.50229353 15.16541187 105.75083073 15.11575331 108 15.0625 C131.12021243 14.56010622 131.12021243 14.56010622 138 18 C138.79791507 24.84566389 138.79791507 24.84566389 136.76806641 27.78222656 C135.0210399 29.50502461 133.21421399 31.07475163 131.3125 32.625 C130.0554887 33.69689017 128.80153547 34.7723777 127.55078125 35.8515625 C126.94540527 36.37008789 126.3400293 36.88861328 125.71630859 37.42285156 C123.19112268 39.74329268 121.14225582 42.32505446 119 45 C118.2575 45.66 117.515 46.32 116.75 47 C114.40522819 49.32606125 114.40522819 49.32606125 114 55 C121.26 55 128.52 55 136 55 C136 55.99 136 56.98 136 58 C128.74 58 121.48 58 114 58 C113.67 59.32 113.34 60.64 113 62 C114.19625 62.0825 115.3925 62.165 116.625 62.25 C123.2888555 62.96436531 129.61437353 65.04707014 136 67 C136.33 68.32 136.66 69.64 137 71 C131.44444444 70.24242424 131.44444444 70.24242424 129.28125 69.0625 C126.06666752 67.5652972 122.7128679 67.01651428 119.25 66.375 C118.20392578 66.17390625 118.20392578 66.17390625 117.13671875 65.96875 C115.42548068 65.64056736 113.71286829 65.31956498 112 65 C111.90074219 66.01835937 111.80148438 67.03671875 111.69921875 68.0859375 C110.38730513 75.42972212 106.42459383 83.38086023 100.6875 88.3125 C98 90 98 90 96 90 C97.90628281 93.59211115 100.08896398 96.19146764 103.07397461 98.94335938 C122.34434795 116.73046299 133.45335558 148.64849348 135.2421875 174.5 C135.24861183 177.01833847 135.15545076 179.48859313 135 182 C135.73863281 182.1124707 136.47726562 182.22494141 137.23828125 182.34082031 C144.27810852 183.45672686 151.11075096 184.93641484 158 186.75 C168.30916402 189.41257733 178.66819101 191.69419418 189.11914062 193.73144531 C198.96686211 195.73853224 208.44999601 198.59746562 217 204 C216.67 205.65 216.34 207.3 216 209 C211.00365401 210.66544866 205.79242107 210.18592617 200.56054688 210.18530273 C198.53493382 210.18746275 196.5098898 210.20555211 194.484375 210.22460938 C193.17984375 210.22654297 191.8753125 210.22847656 190.53125 210.23046875 C189.35111328 210.23457764 188.17097656 210.23868652 186.95507812 210.24291992 C183.79822346 210.04902669 181.0373285 209.65598498 177.95776367 209.03881836 C171.05660405 207.71376649 164.15144122 207.44086147 157.14453125 207.1484375 C155.74774751 207.08468462 154.35099382 207.02027035 152.95426941 206.95523071 C149.31654503 206.78758372 145.67848872 206.62879369 142.0402832 206.47198486 C138.31241535 206.30969494 134.5849406 206.13883851 130.85742188 205.96875 C123.57196841 205.63755243 116.28614189 205.31573138 109 205 C108.690625 205.94875 108.38125 206.8975 108.0625 207.875 C107 211 107 211 106 213 C102.29173349 213.05837668 98.5835863 213.09372277 94.875 213.125 C93.82828125 213.14175781 92.7815625 213.15851563 91.703125 213.17578125 C86.40730664 213.20929909 81.9428941 213.17213685 77 211 C77.33 209.68 77.66 208.36 78 207 C81.465 206.01 81.465 206.01 85 205 C85 204.34 85 203.68 85 203 C84.14019531 203.20496094 83.28039062 203.40992188 82.39453125 203.62109375 C72.31029985 205.91946274 62.64704466 207.13670316 52.28125 206.87890625 C51.25894287 206.85932861 50.23663574 206.83975098 49.18334961 206.81958008 C47.13662807 206.77394794 45.09026025 206.70555341 43.04516602 206.61206055 C36.31874319 206.46007993 34.18855999 207.57527311 29 212 C25.58619866 212.66498348 22.27712975 212.56544795 18.8125 212.4375 C17.91080078 212.43169922 17.00910156 212.42589844 16.08007812 212.41992188 C9.44460336 212.29640224 9.44460336 212.29640224 6 210 C5.625 207 5.625 207 6 204 C9 202 9 202 14 202 C15.65 193.09 17.3 184.18 19 175 C18.34 174.67 17.68 174.34 17 174 C17 172.68 17 171.36 17 170 C16.39671875 169.96261719 15.7934375 169.92523438 15.171875 169.88671875 C11.66894358 169.59857439 8.67303925 169.29548065 5.4375 167.875 C4 166 4 166 3.25 162.6875 C4.22465143 157.89546379 5.94099483 157.30720008 9.83984375 154.71484375 C13.74640637 151.61361231 15.72400053 147.35802171 18 143 C18.45375 142.19304687 18.9075 141.38609375 19.375 140.5546875 C21.73596031 136.18410026 23.28383652 132.17586466 24.3125 127.3125 C26.07348466 119.46903382 30.07525219 112.93161106 34 106 C36.78365227 100.97044647 38.52208362 96.73499658 39 91 C38.25234375 90.55269531 37.5046875 90.10539062 36.734375 89.64453125 C35.74953125 89.03996094 34.7646875 88.43539062 33.75 87.8125 C32.77546875 87.22082031 31.8009375 86.62914062 30.796875 86.01953125 C27.90039456 83.92807819 26.10168881 81.86961357 24 79 C23.2265625 78.04867187 23.2265625 78.04867187 22.4375 77.078125 C18.73570146 72.37040294 14 66.2485805 14 60 C12.77023438 60.433125 11.54046875 60.86625 10.2734375 61.3125 C8.64079098 61.87548156 7.00796911 62.43795482 5.375 63 C4.56675781 63.28617188 3.75851563 63.57234375 2.92578125 63.8671875 C-1.53114644 65.38906525 -5.22037472 66.37123303 -10 66 C-10 65.01 -10 64.02 -10 63 C-1.585 60.525 -1.585 60.525 7 58 C3.47844036 55.65229357 1.49228157 55.62330386 -2.6875 55.375 C-3.86699219 55.30023438 -5.04648438 55.22546875 -6.26171875 55.1484375 C-7.16535156 55.09945312 -8.06898437 55.05046875 -9 55 C-9 54.01 -9 53.02 -9 52 C-6.81278471 51.94539546 -4.62516369 51.9069367 -2.4375 51.875 C-0.61025391 51.84019531 -0.61025391 51.84019531 1.25390625 51.8046875 C5.22644979 52.01180656 8.24213243 52.77155938 12 54 C13.03054641 44.03805138 11.94389027 37.6473603 7.14453125 28.92944336 C2.14705171 19.82482705 -0.72281525 10.48082109 0 0 Z M43 92 C42.81566406 92.7528125 42.63132813 93.505625 42.44140625 94.28125 C40.54613842 101.22214196 38.10715972 106.90972848 34.4375 113.0625 C31.11873388 118.66766034 28.88697872 123.66663395 27.60546875 130.1171875 C26.97136514 133.1363389 26.02166859 135.90321322 25 138.8125 C21.89310405 148.56337343 21.12714802 158.86735488 20 169 C20.99 169 21.98 169 23 169 C22.30745826 173.32352093 21.61365373 177.64683679 20.91870117 181.9699707 C20.68268051 183.4393166 20.44699918 184.90871704 20.21166992 186.37817383 C19.87248461 188.4957515 19.53206149 190.61312711 19.19140625 192.73046875 C18.98717041 194.00301514 18.78293457 195.27556152 18.57250977 196.58666992 C18.09976895 199.40517282 17.5819563 202.20240284 17 205 C13.535 205.495 13.535 205.495 10 206 C10 206.66 10 207.32 10 208 C12.92460429 209.46230215 15.55652824 209.20908727 18.8125 209.25 C20.03582031 209.27578125 21.25914062 209.3015625 22.51953125 209.328125 C26.22555603 208.97873546 28.06429871 208.23569119 31 206 C31.33 205.34 31.66 204.68 32 204 C32.98842896 204.00785522 32.98842896 204.00785522 33.99682617 204.01586914 C55.04910547 204.4948458 55.04910547 204.4948458 75.7890625 201.4765625 C79.81785656 200.60816519 83.89795037 200.34665208 88 200 C88.495 204.455 88.495 204.455 89 209 C87.68 209.33 86.36 209.66 85 210 C90.94 210 96.88 210 103 210 C106.1490712 204.81989159 106.1490712 204.81989159 106 202 C112.98476842 202.23982993 119.96915245 202.48924193 126.95336914 202.74462891 C129.3182034 202.83005281 131.68311156 202.91346044 134.0480957 202.99462891 C146.37628754 203.4191065 158.67291317 203.94632894 170.96484375 205.0078125 C171.92234024 205.090383 172.87983673 205.17295349 173.86634827 205.25802612 C177.69159162 205.61015116 181.27551924 206.05559521 185 207 C189.03887675 207.22346398 193.0805516 207.18513483 197.125 207.1875 C198.78982422 207.20586914 198.78982422 207.20586914 200.48828125 207.22460938 C201.54660156 207.22654297 202.60492188 207.22847656 203.6953125 207.23046875 C204.66484863 207.23457764 205.63438477 207.23868652 206.63330078 207.24291992 C209.18855727 207.23225108 209.18855727 207.23225108 211 205 C200.7205766 198.97072281 189.50013171 196.83966888 177.9375 194.625 C171.39464851 193.3662273 164.99762884 191.72274089 158.5625 190 C149.42748748 187.55599008 140.33035987 185.54377507 131 184 C131.11859375 183.42636719 131.2371875 182.85273438 131.359375 182.26171875 C134.94241401 158.64949168 122.17754097 128.66389532 108.72265625 109.80859375 C106.00884276 106.27456667 106.00884276 106.27456667 103 103 C102.34 103 101.68 103 101 103 C100.505 101.515 100.505 101.515 100 100 C97.71494181 96.9636898 95.32428987 94.84623025 92 93 C89.33381514 93.03745712 89.33381514 93.03745712 86.55859375 93.78125 C79.77840573 95.13645968 73.27425672 95.33196743 66.375 95.3125 C65.22515625 95.32861328 64.0753125 95.34472656 62.890625 95.36132812 C55.75250733 95.36539311 49.69285139 94.51481465 43 92 Z " fill="#FDFDFD" transform="translate(132,147)"/>
<path d="M0 0 C12.25279016 -0.37318143 19.83173623 0.85890866 30.30078125 7.44140625 C33.47698233 9.30138166 33.47698233 9.30138166 37 10 C37.9075 9.195625 38.815 8.39125 39.75 7.5625 C45.42082312 3.16822581 53.24681899 4.24282516 60 5 C62.45376046 5.78740074 64.51467447 6.74734271 66.7734375 7.97265625 C71.89309306 10.33488329 78.60648313 11.79783896 84 10 C88.49583249 11.34874975 88.49583249 11.34874975 90.2109375 13.56420898 C93.02951326 15.82622373 95.57595085 15.30049014 99.125 15.22265625 C100.17820435 15.20917397 100.17820435 15.20917397 101.25268555 15.19541931 C103.50229353 15.16541187 105.75083073 15.11575331 108 15.0625 C131.12021243 14.56010622 131.12021243 14.56010622 138 18 C138.79791507 24.84566389 138.79791507 24.84566389 136.76806641 27.78222656 C135.0210399 29.50502461 133.21421399 31.07475163 131.3125 32.625 C130.0554887 33.69689017 128.80153547 34.7723777 127.55078125 35.8515625 C126.94540527 36.37008789 126.3400293 36.88861328 125.71630859 37.42285156 C123.19112268 39.74329268 121.14225582 42.32505446 119 45 C118.2575 45.66 117.515 46.32 116.75 47 C114.40522819 49.32606125 114.40522819 49.32606125 114 55 C121.26 55 128.52 55 136 55 C136 55.99 136 56.98 136 58 C128.74 58 121.48 58 114 58 C113.67 59.32 113.34 60.64 113 62 C114.19625 62.0825 115.3925 62.165 116.625 62.25 C123.2888555 62.96436531 129.61437353 65.04707014 136 67 C136.33 68.32 136.66 69.64 137 71 C131.44444444 70.24242424 131.44444444 70.24242424 129.28125 69.0625 C126.06666752 67.5652972 122.7128679 67.01651428 119.25 66.375 C118.20392578 66.17390625 118.20392578 66.17390625 117.13671875 65.96875 C115.42548068 65.64056736 113.71286829 65.31956498 112 65 C111.90074219 66.01835937 111.80148438 67.03671875 111.69921875 68.0859375 C110.38730513 75.42972212 106.42459383 83.38086023 100.6875 88.3125 C98 90 98 90 96 90 C97.90628281 93.59211115 100.08896398 96.19146764 103.07397461 98.94335938 C122.34434795 116.73046299 133.45335558 148.64849348 135.2421875 174.5 C135.24861183 177.01833847 135.15545076 179.48859313 135 182 C135.73863281 182.1124707 136.47726562 182.22494141 137.23828125 182.34082031 C144.27810852 183.45672686 151.11075096 184.93641484 158 186.75 C168.30916402 189.41257733 178.66819101 191.69419418 189.11914062 193.73144531 C198.96686211 195.73853224 208.44999601 198.59746562 217 204 C216.67 205.65 216.34 207.3 216 209 C211.00365401 210.66544866 205.79242107 210.18592617 200.56054688 210.18530273 C198.53493382 210.18746275 196.5098898 210.20555211 194.484375 210.22460938 C193.17984375 210.22654297 191.8753125 210.22847656 190.53125 210.23046875 C189.35111328 210.23457764 188.17097656 210.23868652 186.95507812 210.24291992 C183.79822346 210.04902669 181.0373285 209.65598498 177.95776367 209.03881836 C171.05660405 207.71376649 164.15144122 207.44086147 157.14453125 207.1484375 C155.74774751 207.08468462 154.35099382 207.02027035 152.95426941 206.95523071 C149.31654503 206.78758372 145.67848872 206.62879369 142.0402832 206.47198486 C138.31241535 206.30969494 134.5849406 206.13883851 130.85742188 205.96875 C123.57196841 205.63755243 116.28614189 205.31573138 109 205 C108.690625 205.94875 108.38125 206.8975 108.0625 207.875 C107 211 107 211 106 213 C102.29173349 213.05837668 98.5835863 213.09372277 94.875 213.125 C93.82828125 213.14175781 92.7815625 213.15851563 91.703125 213.17578125 C86.40730664 213.20929909 81.9428941 213.17213685 77 211 C77.33 209.68 77.66 208.36 78 207 C81.465 206.01 81.465 206.01 85 205 C85 204.34 85 203.68 85 203 C84.14019531 203.20496094 83.28039062 203.40992188 82.39453125 203.62109375 C72.31029985 205.91946274 62.64704466 207.13670316 52.28125 206.87890625 C51.25894287 206.85932861 50.23663574 206.83975098 49.18334961 206.81958008 C47.13662807 206.77394794 45.09026025 206.70555341 43.04516602 206.61206055 C36.31874319 206.46007993 34.18855999 207.57527311 29 212 C25.58619866 212.66498348 22.27712975 212.56544795 18.8125 212.4375 C17.91080078 212.43169922 17.00910156 212.42589844 16.08007812 212.41992188 C9.44460336 212.29640224 9.44460336 212.29640224 6 210 C5.625 207 5.625 207 6 204 C9 202 9 202 14 202 C15.65 193.09 17.3 184.18 19 175 C18.34 174.67 17.68 174.34 17 174 C17 172.68 17 171.36 17 170 C16.39671875 169.96261719 15.7934375 169.92523438 15.171875 169.88671875 C11.66894358 169.59857439 8.67303925 169.29548065 5.4375 167.875 C4 166 4 166 3.25 162.6875 C4.22465143 157.89546379 5.94099483 157.30720008 9.83984375 154.71484375 C13.74640637 151.61361231 15.72400053 147.35802171 18 143 C18.45375 142.19304687 18.9075 141.38609375 19.375 140.5546875 C21.73596031 136.18410026 23.28383652 132.17586466 24.3125 127.3125 C26.07348466 119.46903382 30.07525219 112.93161106 34 106 C36.78365227 100.97044647 38.52208362 96.73499658 39 91 C38.25234375 90.55269531 37.5046875 90.10539062 36.734375 89.64453125 C35.74953125 89.03996094 34.7646875 88.43539062 33.75 87.8125 C32.77546875 87.22082031 31.8009375 86.62914062 30.796875 86.01953125 C27.90039456 83.92807819 26.10168881 81.86961357 24 79 C23.2265625 78.04867187 23.2265625 78.04867187 22.4375 77.078125 C18.73570146 72.37040294 14 66.2485805 14 60 C12.77023438 60.433125 11.54046875 60.86625 10.2734375 61.3125 C8.64079098 61.87548156 7.00796911 62.43795482 5.375 63 C4.56675781 63.28617188 3.75851563 63.57234375 2.92578125 63.8671875 C-1.53114644 65.38906525 -5.22037472 66.37123303 -10 66 C-10 65.01 -10 64.02 -10 63 C-1.585 60.525 -1.585 60.525 7 58 C3.47844036 55.65229357 1.49228157 55.62330386 -2.6875 55.375 C-3.86699219 55.30023438 -5.04648438 55.22546875 -6.26171875 55.1484375 C-7.16535156 55.09945312 -8.06898437 55.05046875 -9 55 C-9 54.01 -9 53.02 -9 52 C-6.81278471 51.94539546 -4.62516369 51.9069367 -2.4375 51.875 C-0.61025391 51.84019531 -0.61025391 51.84019531 1.25390625 51.8046875 C5.22644979 52.01180656 8.24213243 52.77155938 12 54 C13.03054641 44.03805138 11.94389027 37.6473603 7.14453125 28.92944336 C2.14705171 19.82482705 -0.72281525 10.48082109 0 0 Z M37 13 C37 13.99 37 14.98 37 16 C36.18015625 16.07347656 36.18015625 16.07347656 35.34375 16.1484375 C31.88376252 17.40556629 29.88628466 19.93961699 27.5 22.625 C27.02691406 23.13417969 26.55382812 23.64335937 26.06640625 24.16796875 C22.23498764 28.40269459 18.2480686 33.08519399 17.75 38.9375 C17.8325 39.618125 17.915 40.29875 18 41 C17.34 41 16.68 41 16 41 C12.86336185 50.40991444 16.03762404 59.29525281 20 68 C21.75905837 70.92861997 23.75429278 73.43513542 26 76 C26.42667969 76.59039062 26.85335937 77.18078125 27.29296875 77.7890625 C33.59086223 86.17394121 43.90592744 90.94208688 54 93 C58.36436448 93.3768441 62.68470767 93.37572635 67.0625 93.3125 C68.74182617 93.31733398 68.74182617 93.31733398 70.45507812 93.32226562 C82.05655876 93.24741736 92.16577044 91.70163344 100.75 83.3125 C104.94604726 77.6740615 108.44175174 71.07114465 109 64 C107.68 64 106.36 64 105 64 C105 63.01 105 62.02 105 61 C106.65 61 108.3 61 110 61 C110.33 60.01 110.66 59.02 111 58 C110.01 58 109.02 58 108 58 C108 57.01 108 56.02 108 55 C108.99 55 109.98 55 111 55 C110.64134677 47.58783319 108.64079463 42.43520528 105 36 C104.34 36 103.68 36 103 36 C102.5978125 34.6696875 102.5978125 34.6696875 102.1875 33.3125 C99.94139153 27.04703954 97.21237965 23.75675938 91.62890625 20.16015625 C87.15656084 18.18647633 82.78324472 18.51720521 78 19 C78 18.01 78 17.02 78 16 C79.485 15.505 79.485 15.505 81 15 C78.41806023 14.32749476 75.83467929 13.66182099 73.25 13 C72.52039063 12.80921875 71.79078125 12.6184375 71.0390625 12.421875 C67.55428354 11.53484036 64.61876278 11 61 11 C61 10.34 61 9.68 61 9 C52.17238502 6.05746167 44.43834395 7.74056488 37 13 Z M43 92 C42.81566406 92.7528125 42.63132813 93.505625 42.44140625 94.28125 C40.54613842 101.22214196 38.10715972 106.90972848 34.4375 113.0625 C31.11873388 118.66766034 28.88697872 123.66663395 27.60546875 130.1171875 C26.97136514 133.1363389 26.02166859 135.90321322 25 138.8125 C21.89310405 148.56337343 21.12714802 158.86735488 20 169 C20.99 169 21.98 169 23 169 C22.30745826 173.32352093 21.61365373 177.64683679 20.91870117 181.9699707 C20.68268051 183.4393166 20.44699918 184.90871704 20.21166992 186.37817383 C19.87248461 188.4957515 19.53206149 190.61312711 19.19140625 192.73046875 C18.98717041 194.00301514 18.78293457 195.27556152 18.57250977 196.58666992 C18.09976895 199.40517282 17.5819563 202.20240284 17 205 C13.535 205.495 13.535 205.495 10 206 C10 206.66 10 207.32 10 208 C12.92460429 209.46230215 15.55652824 209.20908727 18.8125 209.25 C20.03582031 209.27578125 21.25914062 209.3015625 22.51953125 209.328125 C26.22555603 208.97873546 28.06429871 208.23569119 31 206 C31.33 205.34 31.66 204.68 32 204 C32.98842896 204.00785522 32.98842896 204.00785522 33.99682617 204.01586914 C55.04910547 204.4948458 55.04910547 204.4948458 75.7890625 201.4765625 C79.81785656 200.60816519 83.89795037 200.34665208 88 200 C88.495 204.455 88.495 204.455 89 209 C87.68 209.33 86.36 209.66 85 210 C90.94 210 96.88 210 103 210 C106.1490712 204.81989159 106.1490712 204.81989159 106 202 C112.98476842 202.23982993 119.96915245 202.48924193 126.95336914 202.74462891 C129.3182034 202.83005281 131.68311156 202.91346044 134.0480957 202.99462891 C146.37628754 203.4191065 158.67291317 203.94632894 170.96484375 205.0078125 C171.92234024 205.090383 172.87983673 205.17295349 173.86634827 205.25802612 C177.69159162 205.61015116 181.27551924 206.05559521 185 207 C189.03887675 207.22346398 193.0805516 207.18513483 197.125 207.1875 C198.78982422 207.20586914 198.78982422 207.20586914 200.48828125 207.22460938 C201.54660156 207.22654297 202.60492188 207.22847656 203.6953125 207.23046875 C204.66484863 207.23457764 205.63438477 207.23868652 206.63330078 207.24291992 C209.18855727 207.23225108 209.18855727 207.23225108 211 205 C200.7205766 198.97072281 189.50013171 196.83966888 177.9375 194.625 C171.39464851 193.3662273 164.99762884 191.72274089 158.5625 190 C149.42748748 187.55599008 140.33035987 185.54377507 131 184 C131.11859375 183.42636719 131.2371875 182.85273438 131.359375 182.26171875 C134.94241401 158.64949168 122.17754097 128.66389532 108.72265625 109.80859375 C106.00884276 106.27456667 106.00884276 106.27456667 103 103 C102.34 103 101.68 103 101 103 C100.505 101.515 100.505 101.515 100 100 C97.71494181 96.9636898 95.32428987 94.84623025 92 93 C89.33381514 93.03745712 89.33381514 93.03745712 86.55859375 93.78125 C79.77840573 95.13645968 73.27425672 95.33196743 66.375 95.3125 C65.22515625 95.32861328 64.0753125 95.34472656 62.890625 95.36132812 C55.75250733 95.36539311 49.69285139 94.51481465 43 92 Z " fill="#030303" transform="translate(132,147)"/>
<path d="M0 0 C4.42729916 1.47576639 5.92047976 5.31383294 8.35546875 9.1171875 C15.12166433 18.77363453 25.51611857 24.69982936 37 27 C41.36450635 27.37499668 45.68469505 27.37572653 50.0625 27.3125 C51.18205078 27.31572266 52.30160156 27.31894531 53.45507812 27.32226562 C61.68689141 27.26915715 69.58733459 26.86542782 76.8125 22.5625 C77.52019531 22.15128906 78.22789062 21.74007812 78.95703125 21.31640625 C81.04995928 19.96780826 83.02852919 18.51958312 85 17 C85.66 17.33 86.32 17.66 87 18 C85.61122646 21.35620271 84.08322035 23.07298728 81 25 C80.34 25 79.68 25 79 25 C80.90628281 28.59211115 83.08896398 31.19146764 86.07397461 33.94335938 C105.34434795 51.73046299 116.45335558 83.64849348 118.2421875 109.5 C118.24861183 112.01833847 118.15545076 114.48859313 118 117 C119.10794922 117.16870605 119.10794922 117.16870605 120.23828125 117.34082031 C127.27810852 118.45672686 134.11075096 119.93641484 141 121.75 C151.30916402 124.41257733 161.66819101 126.69419418 172.11914062 128.73144531 C181.96686211 130.73853224 191.44999601 133.59746562 200 139 C199.67 140.65 199.34 142.3 199 144 C194.00365401 145.66544866 188.79242107 145.18592617 183.56054688 145.18530273 C181.53493382 145.18746275 179.5098898 145.20555211 177.484375 145.22460938 C176.17984375 145.22654297 174.8753125 145.22847656 173.53125 145.23046875 C172.35111328 145.23457764 171.17097656 145.23868652 169.95507812 145.24291992 C166.79822346 145.04902669 164.0373285 144.65598498 160.95776367 144.03881836 C154.05660405 142.71376649 147.15144122 142.44086147 140.14453125 142.1484375 C138.74774751 142.08468462 137.35099382 142.02027035 135.95426941 141.95523071 C132.31654503 141.78758372 128.67848872 141.62879369 125.0402832 141.47198486 C121.31241535 141.30969494 117.5849406 141.13883851 113.85742188 140.96875 C106.57196841 140.63755243 99.28614189 140.31573138 92 140 C91.690625 140.94875 91.38125 141.8975 91.0625 142.875 C90 146 90 146 89 148 C85.29173349 148.05837668 81.5835863 148.09372277 77.875 148.125 C76.82828125 148.14175781 75.7815625 148.15851563 74.703125 148.17578125 C69.40730664 148.20929909 64.9428941 148.17213685 60 146 C60.33 144.68 60.66 143.36 61 142 C64.465 141.01 64.465 141.01 68 140 C68 139.34 68 138.68 68 138 C67.14019531 138.20496094 66.28039062 138.40992188 65.39453125 138.62109375 C55.31029985 140.91946274 45.64704466 142.13670316 35.28125 141.87890625 C34.25894287 141.85932861 33.23663574 141.83975098 32.18334961 141.81958008 C30.13662807 141.77394794 28.09026025 141.70555341 26.04516602 141.61206055 C19.31874319 141.46007993 17.18855999 142.57527311 12 147 C8.58619866 147.66498348 5.27712975 147.56544795 1.8125 147.4375 C0.91080078 147.43169922 0.00910156 147.42589844 -0.91992188 147.41992188 C-7.55539664 147.29640224 -7.55539664 147.29640224 -11 145 C-11.375 142 -11.375 142 -11 139 C-8 137 -8 137 -3 137 C-1.35 128.09 0.3 119.18 2 110 C1.34 109.67 0.68 109.34 0 109 C0 107.68 0 106.36 0 105 C-0.60328125 104.96261719 -1.2065625 104.92523438 -1.828125 104.88671875 C-5.33105642 104.59857439 -8.32696075 104.29548065 -11.5625 102.875 C-13 101 -13 101 -13.75 97.6875 C-12.77534857 92.89546379 -11.05900517 92.30720008 -7.16015625 89.71484375 C-3.25359363 86.61361231 -1.27599947 82.35802171 1 78 C1.45375 77.19304687 1.9075 76.38609375 2.375 75.5546875 C4.73596031 71.18410026 6.28383652 67.17586466 7.3125 62.3125 C9.07348466 54.46903382 13.07525219 47.93161106 17 41 C19.78365227 35.97044647 21.52208362 31.73499658 22 26 C20.87851563 25.32904297 20.87851563 25.32904297 19.734375 24.64453125 C18.74953125 24.03996094 17.7646875 23.43539062 16.75 22.8125 C15.77546875 22.22082031 14.8009375 21.62914062 13.796875 21.01953125 C10.89755464 18.92602758 9.1012768 16.87472549 7 14 C6.46117187 13.319375 5.92234375 12.63875 5.3671875 11.9375 C2.66237807 8.42549613 0.34072761 5.29032836 -1 1 C-0.67 0.67 -0.34 0.34 0 0 Z M26 27 C25.81566406 27.7528125 25.63132813 28.505625 25.44140625 29.28125 C23.54613842 36.22214196 21.10715972 41.90972848 17.4375 48.0625 C14.11873388 53.66766034 11.88697872 58.66663395 10.60546875 65.1171875 C9.97136514 68.1363389 9.02166859 70.90321322 8 73.8125 C4.89310405 83.56337343 4.12714802 93.86735488 3 104 C3.99 104 4.98 104 6 104 C5.30745826 108.32352093 4.61365373 112.64683679 3.91870117 116.9699707 C3.68268051 118.4393166 3.44699918 119.90871704 3.21166992 121.37817383 C2.87248461 123.4957515 2.53206149 125.61312711 2.19140625 127.73046875 C1.98717041 129.00301514 1.78293457 130.27556152 1.57250977 131.58666992 C1.09976895 134.40517282 0.5819563 137.20240284 0 140 C-3.465 140.495 -3.465 140.495 -7 141 C-7 141.66 -7 142.32 -7 143 C-4.07539571 144.46230215 -1.44347176 144.20908727 1.8125 144.25 C3.03582031 144.27578125 4.25914062 144.3015625 5.51953125 144.328125 C9.22555603 143.97873546 11.06429871 143.23569119 14 141 C14.33 140.34 14.66 139.68 15 139 C15.98842896 139.00785522 15.98842896 139.00785522 16.99682617 139.01586914 C38.04910547 139.4948458 38.04910547 139.4948458 58.7890625 136.4765625 C62.81785656 135.60816519 66.89795037 135.34665208 71 135 C71.495 139.455 71.495 139.455 72 144 C70.68 144.33 69.36 144.66 68 145 C73.94 145 79.88 145 86 145 C89.1490712 139.81989159 89.1490712 139.81989159 89 137 C95.98476842 137.23982993 102.96915245 137.48924193 109.95336914 137.74462891 C112.3182034 137.83005281 114.68311156 137.91346044 117.0480957 137.99462891 C129.37628754 138.4191065 141.67291317 138.94632894 153.96484375 140.0078125 C154.92234024 140.090383 155.87983673 140.17295349 156.86634827 140.25802612 C160.69159162 140.61015116 164.27551924 141.05559521 168 142 C172.03887675 142.22346398 176.0805516 142.18513483 180.125 142.1875 C181.78982422 142.20586914 181.78982422 142.20586914 183.48828125 142.22460938 C184.54660156 142.22654297 185.60492188 142.22847656 186.6953125 142.23046875 C187.66484863 142.23457764 188.63438477 142.23868652 189.63330078 142.24291992 C192.18855727 142.23225108 192.18855727 142.23225108 194 140 C183.7205766 133.97072281 172.50013171 131.83966888 160.9375 129.625 C154.39464851 128.3662273 147.99762884 126.72274089 141.5625 125 C132.42748748 122.55599008 123.33035987 120.54377507 114 119 C114.11859375 118.42636719 114.2371875 117.85273438 114.359375 117.26171875 C117.94241401 93.64949168 105.17754097 63.66389532 91.72265625 44.80859375 C89.00884276 41.27456667 89.00884276 41.27456667 86 38 C85.34 38 84.68 38 84 38 C83.505 36.515 83.505 36.515 83 35 C80.71494181 31.9636898 78.32428987 29.84623025 75 28 C72.33381514 28.03745712 72.33381514 28.03745712 69.55859375 28.78125 C62.77840573 30.13645968 56.27425672 30.33196743 49.375 30.3125 C48.22515625 30.32861328 47.0753125 30.34472656 45.890625 30.36132812 C38.75250733 30.36539311 32.69285139 29.51481465 26 27 Z " fill="#030303" transform="translate(149,212)"/>
<path d="M0 0 C12.25279016 -0.37318143 19.83173623 0.85890866 30.30078125 7.44140625 C33.47702746 9.30192212 33.47702746 9.30192212 37 10 C38.3921875 8.7934375 38.3921875 8.7934375 39.8125 7.5625 C45.15351669 3.30380388 52.54785535 4.62632367 59 5 C58.67 5.99 58.34 6.98 58 8 C57.20335937 8.02578125 56.40671875 8.0515625 55.5859375 8.078125 C49.05003641 8.42797859 45.12306336 8.92782143 40 13 C39.01 13 38.02 13 37 13 C37 13.99 37 14.98 37 16 C35.35391133 17.03352304 33.68289375 18.02755648 32 19 C25.68937219 25.08714858 19.09667898 31.95239839 18 41 C17.34 41 16.68 41 16 41 C15.63258661 49.55937129 16.26022667 56.86222087 19 65 C17.515 65.495 17.515 65.495 16 66 C15.01 63.03 15.01 63.03 14 60 C12.77023438 60.433125 11.54046875 60.86625 10.2734375 61.3125 C8.64079098 61.87548156 7.00796911 62.43795482 5.375 63 C4.56675781 63.28617188 3.75851563 63.57234375 2.92578125 63.8671875 C-1.53114644 65.38906525 -5.22037472 66.37123303 -10 66 C-10 65.01 -10 64.02 -10 63 C-1.585 60.525 -1.585 60.525 7 58 C3.47844036 55.65229357 1.49228157 55.62330386 -2.6875 55.375 C-3.86699219 55.30023438 -5.04648438 55.22546875 -6.26171875 55.1484375 C-7.16535156 55.09945312 -8.06898437 55.05046875 -9 55 C-9 54.01 -9 53.02 -9 52 C-6.81278471 51.94539546 -4.62516369 51.9069367 -2.4375 51.875 C-0.61025391 51.84019531 -0.61025391 51.84019531 1.25390625 51.8046875 C5.22644979 52.01180656 8.24213243 52.77155938 12 54 C13.03054641 44.03805138 11.94389027 37.6473603 7.14453125 28.92944336 C2.14705171 19.82482705 -0.72281525 10.48082109 0 0 Z " fill="#030303" transform="translate(132,147)"/>
<path d="M0 0 C0.66 0.33 1.32 0.66 2 1 C0.59491996 5.47070922 -1.59346112 7.83678532 -5 11 C-6.1446875 12.1446875 -6.1446875 12.1446875 -7.3125 13.3125 C-7.869375 13.869375 -8.42625 14.42625 -9 15 C-7.68 15.99 -6.36 16.98 -5 18 C-5 17.34 -5 16.68 -5 16 C-5.66 16 -6.32 16 -7 16 C-7 15.01 -7 14.02 -7 13 C-5.35 13 -3.7 13 -2 13 C-1.87625 13.639375 -1.7525 14.27875 -1.625 14.9375 C-1.41875 15.618125 -1.2125 16.29875 -1 17 C-0.34 17.33 0.32 17.66 1 18 C0.938125 16.906875 0.87625 15.81375 0.8125 14.6875 C1 11 1 11 2.5 9.0625 C2.995 8.711875 3.49 8.36125 4 8 C5.12758089 11.38274266 4.81750262 12.76778223 4.0625 16.1875 C3.86785156 17.08855469 3.67320312 17.98960937 3.47265625 18.91796875 C3.31667969 19.60503906 3.16070312 20.29210937 3 21 C3.99 21 4.98 21 6 21 C5.61136031 28.5851747 4.78952635 36.00940547 3.5625 43.5 C3.44028076 44.26489746 3.31806152 45.02979492 3.19213867 45.81787109 C2.51975232 49.77879031 1.68715593 53.31893252 0 57 C-3.465 57.495 -3.465 57.495 -7 58 C-7 58.66 -7 59.32 -7 60 C-4.43721301 60.05420701 -1.87558517 60.09377007 0.6875 60.125 C1.40873047 60.14175781 2.12996094 60.15851563 2.87304688 60.17578125 C7.00555463 60.21352105 10.37647127 60.09236267 14 58 C14.33 57.01 14.66 56.02 15 55 C15.98842896 55.00785522 15.98842896 55.00785522 16.99682617 55.01586914 C38.05574553 55.4774083 38.05574553 55.4774083 58.7890625 52.41015625 C62.85304214 51.65623777 66.88058258 51.88396007 71 52 C71.495 56.455 71.495 56.455 72 61 C76.62 61 81.24 61 86 61 C86.99 58.69 87.98 56.38 89 54 C105.57717917 53.74249811 122.06859838 54.04915323 138.625 54.875 C139.45943634 54.91429626 140.29387268 54.95359253 141.15359497 54.99407959 C149.38470498 55.38817436 157.37225515 55.89080083 165.4609375 57.55419922 C170.16810197 58.38066867 174.91899212 58.47086641 179.6875 58.625 C180.68716797 58.66367187 181.68683594 58.70234375 182.71679688 58.7421875 C185.14436379 58.83510872 187.5719484 58.92096061 190 59 C190.33 59.99 190.66 60.98 191 62 C187.0625648 62.05893685 183.12524573 62.09390669 179.1875 62.125 C178.08728516 62.14175781 176.98707031 62.15851563 175.85351562 62.17578125 C174.76103516 62.18222656 173.66855469 62.18867188 172.54296875 62.1953125 C171.0583313 62.21102295 171.0583313 62.21102295 169.54370117 62.22705078 C166.56844143 62.03642098 163.92943554 61.62450397 161.01953125 61.04101562 C154.09647436 59.72191566 147.17203972 59.44172112 140.14453125 59.1484375 C138.74774751 59.08468462 137.35099382 59.02027035 135.95426941 58.95523071 C132.31654503 58.78758372 128.67848872 58.62879369 125.0402832 58.47198486 C121.31241535 58.30969494 117.5849406 58.13883851 113.85742188 57.96875 C106.57196841 57.63755243 99.28614189 57.31573138 92 57 C91.690625 57.94875 91.38125 58.8975 91.0625 59.875 C90 63 90 63 89 65 C85.29173349 65.05837668 81.5835863 65.09372277 77.875 65.125 C76.82828125 65.14175781 75.7815625 65.15851563 74.703125 65.17578125 C69.40730664 65.20929909 64.9428941 65.17213685 60 63 C60.33 61.68 60.66 60.36 61 59 C63.31 58.34 65.62 57.68 68 57 C68 56.34 68 55.68 68 55 C67.14019531 55.20496094 66.28039062 55.40992188 65.39453125 55.62109375 C55.31029985 57.91946274 45.64704466 59.13670316 35.28125 58.87890625 C34.25894287 58.85932861 33.23663574 58.83975098 32.18334961 58.81958008 C30.13662807 58.77394794 28.09026025 58.70555341 26.04516602 58.61206055 C19.31874319 58.46007993 17.18855999 59.57527311 12 64 C8.58619866 64.66498348 5.27712975 64.56544795 1.8125 64.4375 C0.91080078 64.43169922 0.00910156 64.42589844 -0.91992188 64.41992188 C-7.55539664 64.29640224 -7.55539664 64.29640224 -11 62 C-11.375 59 -11.375 59 -11 56 C-8 54 -8 54 -3 54 C-1.35 45.09 0.3 36.18 2 27 C1.34 26.67 0.68 26.34 0 26 C0 24.68 0 23.36 0 22 C-0.60328125 21.96261719 -1.2065625 21.92523438 -1.828125 21.88671875 C-5.33105642 21.59857439 -8.32696075 21.29548065 -11.5625 19.875 C-13 18 -13 18 -13.8125 14.75 C-12.73115371 9.75917097 -10.45225846 8.47793512 -6.359375 5.67578125 C-3.96766798 3.9770357 -2.01681486 2.12320647 0 0 Z " fill="#020202" transform="translate(149,295)"/>
<path d="M0 0 C4.47911082 -0.05856225 8.9581217 -0.09378482 13.4375 -0.125 C14.69755859 -0.14175781 15.95761719 -0.15851563 17.25585938 -0.17578125 C32.48934109 -0.25532946 32.48934109 -0.25532946 39 3 C38.60567271 7.44137048 35.54859156 9.53086866 32.375 12.25 C28.01133514 16.09530574 24.05221703 19.98832991 20.40234375 24.5390625 C19 26 19 26 16 27 C15.61328125 26.21496094 15.2265625 25.42992187 14.828125 24.62109375 C11.42770827 17.7195694 11.42770827 17.7195694 7.6875 11 C6 8 6 8 5.5625 5.75 C4.67121636 2.97711756 2.46148363 2.32541426 0 1 C0 0.67 0 0.34 0 0 Z " fill="#FCFCFC" transform="translate(228,165)"/>
<path d="M0 0 C4.42729916 1.47576639 5.92047976 5.31383294 8.35546875 9.1171875 C15.22100684 18.91541223 25.32396413 24.00440837 36.63671875 27.2109375 C39 28 39 28 41 30 C35.87160006 31.81975482 31.82315618 29.8599099 27 28 C26.81566406 28.680625 26.63132813 29.36125 26.44140625 30.0625 C24.48781944 36.59182124 21.897738 42.1760783 18.4375 48 C15.13603603 53.60772129 12.89891109 58.6352514 11.609375 65.07421875 C10.93567381 68.3088482 9.9653 71.36074131 8.9375 74.5 C7.01278159 80.59862884 5.8666229 86.67137224 5 93 C4.34 92.67 3.68 92.34 3 92 C2.34 94.97 1.68 97.94 1 101 C0.01 100.67 -0.98 100.34 -2 100 C-2 98.68 -2 97.36 -2 96 C-3.65 96 -5.3 96 -7 96 C-7 96.99 -7 97.98 -7 99 C-6.34 99 -5.68 99 -5 99 C-5 99.66 -5 100.32 -5 101 C-6.32 100.34 -7.64 99.68 -9 99 C-9 98.01 -9 97.02 -9 96 C-8.0925 95.401875 -7.185 94.80375 -6.25 94.1875 C-2.56219685 91.7053248 -1.22188837 89.76011877 1 86 C0.67 85.34 0.34 84.68 0 84 C-0.33 83.34 -0.66 82.68 -1 82 C0.02182327 79.81810678 1.09578048 77.73521132 2.25 75.625 C4.61489679 71.13957334 6.42191278 67.07227586 7.4375 62.0625 C9.09896719 54.30552503 13.12872043 47.83717924 17 41 C19.78365227 35.97044647 21.52208362 31.73499658 22 26 C21.25234375 25.55269531 20.5046875 25.10539062 19.734375 24.64453125 C18.74953125 24.03996094 17.7646875 23.43539062 16.75 22.8125 C15.77546875 22.22082031 14.8009375 21.62914062 13.796875 21.01953125 C10.89755464 18.92602758 9.1012768 16.87472549 7 14 C6.46117187 13.319375 5.92234375 12.63875 5.3671875 11.9375 C2.66237807 8.42549613 0.34072761 5.29032836 -1 1 C-0.67 0.67 -0.34 0.34 0 0 Z " fill="#030303" transform="translate(149,212)"/>
<path d="M0 0 C10.51118545 -0.12222309 18.21250097 2.38678584 27 8 C27.99 9.485 27.99 9.485 29 11 C28.25234375 11.78503906 27.5046875 12.57007813 26.734375 13.37890625 C25.73922777 14.43977075 24.74445614 15.50098765 23.75 16.5625 C23.25886719 17.07619141 22.76773438 17.58988281 22.26171875 18.11914062 C19.73016319 20.8363436 17.62803299 23.45701029 15.828125 26.71484375 C14.35867225 29.3554629 13.26156781 31.07766736 11 33 C-0.33947446 11.77552048 -0.33947446 11.77552048 0 0 Z " fill="#FCFCFC" transform="translate(135,150)"/>
<path d="M0 0 C0.99 0 1.98 0 3 0 C3.1365378 12.4994152 2.29272207 24.91027726 -1.3125 36.9375 C-1.50094482 37.59306885 -1.68938965 38.2486377 -1.88354492 38.92407227 C-3.33558114 43.37397415 -5.32422691 45.24778799 -9 48 C-9 48.99 -9 49.98 -9 51 C-7.68 51.33 -6.36 51.66 -5 52 C-5 50.35 -5 48.7 -5 47 C-3.68 47 -2.36 47 -1 47 C-1 48.98 -1 50.96 -1 53 C-0.01 53 0.98 53 2 53 C2 52.01 2 51.02 2 50 C3.32 50 4.64 50 6 50 C6 50.66 6 51.32 6 52 C7.98 52 9.96 52 12 52 C17.73079922 38.65367348 21.1422855 27.60371786 22 13 C22.99 13 23.98 13 25 13 C25.75897002 27.86316281 22.97196535 41.67263766 16 55 C13.59511789 56.20244106 12.10949969 56.06862279 9.4375 56 C7.95881779 55.96214574 6.47844212 55.95370827 5 56 C4.67 56.33 4.34 56.66 4 57 C2.1875 57.1328125 2.1875 57.1328125 0 57.125 C-0.721875 57.12757813 -1.44375 57.13015625 -2.1875 57.1328125 C-4 57 -4 57 -5 56 C-6.134375 55.855625 -7.26875 55.71125 -8.4375 55.5625 C-12 55 -12 55 -14 53 C-14.4375 50.1875 -14.4375 50.1875 -14 47 C-12.3563186 45.31066078 -10.6857124 43.64740076 -9 42 C-3.79898618 32.67343624 -2.49399034 23.02734335 -1.375 12.5625 C-1.2409375 11.35400391 -1.106875 10.14550781 -0.96875 8.90039062 C-0.64046931 5.93414009 -0.31771939 2.96739719 0 0 Z " fill="#030303" transform="translate(196,266)"/>
<path d="M0 0 C1.94712891 0.00580078 1.94712891 0.00580078 3.93359375 0.01171875 C7.32767589 0.29303665 9.58736772 0.69804528 12.5625 2.3125 C14.61154183 5.38606275 14.87876643 6.28848575 14.9375 9.8125 C14.96585938 10.5859375 14.99421875 11.359375 15.0234375 12.15625 C14.5625 14.3125 14.5625 14.3125 12.9921875 16.08203125 C9.6571608 17.77099172 7.02870915 17.60322803 3.3125 17.5 C2.04921875 17.47292969 0.7859375 17.44585937 -0.515625 17.41796875 C-1.47984375 17.38316406 -2.4440625 17.34835938 -3.4375 17.3125 C-3.71464844 16.66539062 -3.99179688 16.01828125 -4.27734375 15.3515625 C-4.66019531 14.67867187 -5.04304687 14.00578125 -5.4375 13.3125 C-7.96483235 12.65694881 -7.96483235 12.65694881 -10.4375 12.3125 C-11.97913175 9.2292365 -11.73497535 6.70371901 -11.4375 3.3125 C-8.10748471 -0.33545645 -4.72895778 -0.0609281 0 0 Z " fill="#030303" transform="translate(181.4375,213.6875)"/>
<path d="M0 0 C1.05574219 -0.03673828 1.05574219 -0.03673828 2.1328125 -0.07421875 C7.23387384 -0.10266333 10.28856705 0.89411412 14.25 4.375 C14.6875 8.0625 14.6875 8.0625 14.25 11.375 C12.43884044 13.18615956 9.63721773 12.75699448 7.1875 12.9375 C6.08277344 13.02128906 4.97804687 13.10507813 3.83984375 13.19140625 C2.98519531 13.25199219 2.13054687 13.31257812 1.25 13.375 C3.23 14.365 5.21 15.355 7.25 16.375 C7.25 17.365 7.25 18.355 7.25 19.375 C1.89021589 18.95462478 -0.75158692 17.92914496 -4.75 14.375 C-5.74 14.045 -6.73 13.715 -7.75 13.375 C-7.2446875 13.91769531 -6.739375 14.46039063 -6.21875 15.01953125 C-5.5690625 15.73496094 -4.919375 16.45039063 -4.25 17.1875 C-3.6003125 17.89519531 -2.950625 18.60289062 -2.28125 19.33203125 C-0.75 21.375 -0.75 21.375 -0.75 24.375 C-4.54549259 23.82918801 -6.05979295 22.32090705 -8.5 19.4375 C-9.42039063 18.37208984 -9.42039063 18.37208984 -10.359375 17.28515625 C-11.75 15.375 -11.75 15.375 -11.75 13.375 C-12.41 13.375 -13.07 13.375 -13.75 13.375 C-13.75 12.385 -13.75 11.395 -13.75 10.375 C-12.1 10.045 -10.45 9.715 -8.75 9.375 C-8.95625 8.26125 -9.1625 7.1475 -9.375 6 C-9.49875 4.80375 -9.6225 3.6075 -9.75 2.375 C-6.85178752 -0.52321248 -3.87721488 0.00694841 0 0 Z " fill="#030303" transform="translate(212.75,185.625)"/>
<path d="M0 0 C0.67611328 -0.00322266 1.35222656 -0.00644531 2.04882812 -0.00976562 C7.04491795 0.04491795 7.04491795 0.04491795 9.3125 2.3125 C9.77097689 4.67280696 10.13393131 7.0523174 10.4375 9.4375 C10.60507813 10.71882812 10.77265625 12.00015625 10.9453125 13.3203125 C11.06648438 14.30773437 11.18765625 15.29515625 11.3125 16.3125 C3.050541 22.05281891 3.050541 22.05281891 -1.6875 21.3125 C-1.6875 20.6525 -1.6875 19.9925 -1.6875 19.3125 C-3.0075 19.3125 -4.3275 19.3125 -5.6875 19.3125 C-5.6875 17.9925 -5.6875 16.6725 -5.6875 15.3125 C-3.7075 14.9825 -1.7275 14.6525 0.3125 14.3125 C-3.6475 13.9825 -7.6075 13.6525 -11.6875 13.3125 C-12.0175 10.0125 -12.3475 6.7125 -12.6875 3.3125 C-8.42010723 0.18417919 -5.23075991 -0.06660125 0 0 Z " fill="#060606" transform="translate(163.6875,184.6875)"/>
<path d="M0 0 C2.84825773 2.03920113 3.83358345 3.21956377 4.56640625 6.65625 C4.5559123 14.29584442 4.5559123 14.29584442 2.125 17.375 C1.09375 17.91125 0.0625 18.4475 -1 19 C-1.80953125 19.42925781 -2.6190625 19.85851562 -3.453125 20.30078125 C-6.92253731 22.10142653 -10.2884172 23.76280573 -14 25 C-14 25.66 -14 26.32 -14 27 C-14.99 27 -15.98 27 -17 27 C-16.96875 24.765625 -16.96875 24.765625 -16 22 C-13.69275002 20.20377223 -11.1313559 19.00532575 -8.5 17.75 C-7.11407511 17.05830905 -5.72863258 16.36565047 -4.34375 15.671875 C-3.2403125 15.12015625 -2.136875 14.5684375 -1 14 C0.39681568 12.83016556 0.39681568 12.83016556 0.125 9.5625 C0.2526281 6.15894416 0.2526281 6.15894416 -1 4 C-8.27345621 3.67269447 -14.49870473 3.44268749 -21 7 C-22.13440778 9.57080135 -22.13440778 9.57080135 -22 12 C-22.99 12 -23.98 12 -25 12 C-25.36910846 6.46337308 -25.36910846 6.46337308 -23.73046875 4.40625 C-17.44278286 -0.70338187 -7.69106793 -1.30758451 0 0 Z " fill="#030303" transform="translate(200,65)"/>
<path d="M0 0 C0.99 0.33 1.98 0.66 3 1 C2.87882812 1.58265625 2.75765625 2.1653125 2.6328125 2.765625 C1.25920651 9.48572816 0.09358533 16.22907805 -1 23 C-1.66 22.67 -2.32 22.34 -3 22 C-3.66 24.97 -4.32 27.94 -5 31 C-5.99 30.67 -6.98 30.34 -8 30 C-8 28.68 -8 27.36 -8 26 C-9.65 26 -11.3 26 -13 26 C-13 26.99 -13 27.98 -13 29 C-12.34 29 -11.68 29 -11 29 C-11 29.66 -11 30.32 -11 31 C-12.32 30.34 -13.64 29.68 -15 29 C-15 28.01 -15 27.02 -15 26 C-13.63875 25.1028125 -13.63875 25.1028125 -12.25 24.1875 C-8.56219685 21.7053248 -7.22188837 19.76011877 -5 16 C-5.33 15.34 -5.66 14.68 -6 14 C-6.33 13.34 -6.66 12.68 -7 12 C-6.07421875 9.43359375 -6.07421875 9.43359375 -4.6875 6.4375 C-4.23761719 5.44621094 -3.78773438 4.45492188 -3.32421875 3.43359375 C-2 1 -2 1 0 0 Z " fill="#080808" transform="translate(155,282)"/>
<path d="M0 0 C3.0625 1.1875 3.0625 1.1875 5 3 C5.8125 5.6875 5.8125 5.6875 6 8 C4.09598862 9.90401138 2.66574314 10.93520439 -0.046875 11.19921875 C-2.03233273 11.1886578 -4.0169914 11.09915043 -6 11 C-6.3403125 10.0409375 -6.3403125 10.0409375 -6.6875 9.0625 C-7.85250896 6.72806339 -7.85250896 6.72806339 -10.625 6.25 C-11.40875 6.1675 -12.1925 6.085 -13 6 C-13.33 5.01 -13.66 4.02 -14 3 C-9.57304225 -0.8646421 -5.64507143 -0.66681265 0 0 Z " fill="#FBFBFB" transform="translate(187,217)"/>
<path d="M0 0 C7.24705882 0.82352941 7.24705882 0.82352941 10 4 C10.3125 7.625 10.3125 7.625 10 11 C9 12 9 12 5.4375 12.0625 C4.303125 12.041875 3.16875 12.02125 2 12 C2 11.01 2 10.02 2 9 C1.34 8.67 0.68 8.34 0 8 C0.66 8 1.32 8 2 8 C2 6.68 2 5.36 2 4 C1.01 4.33 0.02 4.66 -1 5 C-1.33 5.99 -1.66 6.98 -2 8 C-5 9 -5 9 -7.6875 7.75 C-8.450625 7.1725 -9.21375 6.595 -10 6 C-10 5.01 -10 4.02 -10 3 C-6.7 2.67 -3.4 2.34 0 2 C0 1.34 0 0.68 0 0 Z " fill="#030303" transform="translate(217,186)"/>
<path d="M0 0 C0.67611328 -0.00322266 1.35222656 -0.00644531 2.04882812 -0.00976562 C7.04491795 0.04491795 7.04491795 0.04491795 9.3125 2.3125 C8.9825 3.6325 8.6525 4.9525 8.3125 6.3125 C5.3425 5.3225 2.3725 4.3325 -0.6875 3.3125 C-0.6875 4.3025 -0.6875 5.2925 -0.6875 6.3125 C-2.0075 6.3125 -3.3275 6.3125 -4.6875 6.3125 C-4.6875 5.6525 -4.6875 4.9925 -4.6875 4.3125 C-5.6775 4.3125 -6.6675 4.3125 -7.6875 4.3125 C-7.6875 7.2825 -7.6875 10.2525 -7.6875 13.3125 C-9.0075 13.3125 -10.3275 13.3125 -11.6875 13.3125 C-12.0175 10.0125 -12.3475 6.7125 -12.6875 3.3125 C-8.42010723 0.18417919 -5.23075991 -0.06660125 0 0 Z " fill="#040404" transform="translate(163.6875,184.6875)"/>
<path d="M0 0 C1.65 0 3.3 0 5 0 C5.66 1.32 6.32 2.64 7 4 C4.33684806 6.66315194 2.34655932 6.94426493 -1.359375 7.09765625 C-2.14828125 7.08605469 -2.9371875 7.07445312 -3.75 7.0625 C-4.54921875 7.05347656 -5.3484375 7.04445312 -6.171875 7.03515625 C-6.77515625 7.02355469 -7.3784375 7.01195312 -8 7 C-7.67 5.02 -7.34 3.04 -7 1 C-6.01 1 -5.02 1 -4 1 C-4 1.66 -4 2.32 -4 3 C-2.68 3 -1.36 3 0 3 C0 2.01 0 1.02 0 0 Z " fill="#FBFBFB" transform="translate(163,188)"/>
<path d="M0 0 C0.33 0 0.66 0 1 0 C1.09038099 5.15171623 0.84681133 9.91913204 0 15 C-0.99 14.67 -1.98 14.34 -3 14 C-3 12.68 -3 11.36 -3 10 C-4.65 10 -6.3 10 -8 10 C-8 10.99 -8 11.98 -8 13 C-7.34 13 -6.68 13 -6 13 C-6 13.66 -6 14.32 -6 15 C-7.32 14.34 -8.64 13.68 -10 13 C-10 12.01 -10 11.02 -10 10 C-8.63875 9.1028125 -8.63875 9.1028125 -7.25 8.1875 C-3.74138937 5.82593515 -2.18736256 3.56459083 0 0 Z " fill="#FBFBFB" transform="translate(150,298)"/>
<path d="M0 0 C2.64 0 5.28 0 8 0 C8 1.98 8 3.96 8 6 C4.625 6.625 4.625 6.625 1 7 C0.34 6.34 -0.32 5.68 -1 5 C-0.625 2.375 -0.625 2.375 0 0 Z " fill="#030303" transform="translate(175,204)"/>
<path d="M0 0 C3.96 0 7.92 0 12 0 C11.01 0.66 10.02 1.32 9 2 C8.67 2.99 8.34 3.98 8 5 C5 6 5 6 2.3125 4.75 C1.549375 4.1725 0.78625 3.595 0 3 C0 2.01 0 1.02 0 0 Z " fill="#FBFBFB" transform="translate(207,189)"/>
<path d="M0 0 C2.97 0.495 2.97 0.495 6 1 C6 1.99 6 2.98 6 4 C4.02 4.33 2.04 4.66 0 5 C0 3.35 0 1.7 0 0 Z " fill="#030303" transform="translate(183,99)"/>
<path d="M0 0 C1.65 0.99 3.3 1.98 5 3 C4.67 3.66 4.34 4.32 4 5 C2.02 5 0.04 5 -2 5 C-1.34 4.67 -0.68 4.34 0 4 C0 2.68 0 1.36 0 0 Z " fill="#FBFBFB" transform="translate(219,190)"/>
</svg>
